<svg width="23" height="22" viewBox="0 0 23 22" fill="none" xmlns="http://www.w3.org/2000/svg">
    <circle cx="11.1431" cy="11" r="10.0571" stroke="white" stroke-width="1.88571"/>
    <path fill-rule="evenodd" clip-rule="evenodd" d="M8.4547 7.33183C8.18397 7.0611 7.74502 7.0611 7.47429 7.33183C7.20356 7.60257 7.20356 8.04151 7.47429 8.31225L10.2233 11.0613L7.47467 13.8099C7.20394 14.0806 7.20394 14.5196 7.47467 14.7903C7.74541 15.0611 8.18435 15.0611 8.45508 14.7903L11.2037 12.0417L13.9524 14.7903C14.2231 15.0611 14.662 15.0611 14.9328 14.7903C15.2035 14.5196 15.2035 14.0806 14.9328 13.8099L12.1841 11.0613L14.9332 8.31225C15.2039 8.04151 15.2039 7.60257 14.9332 7.33183C14.6624 7.0611 14.2235 7.0611 13.9527 7.33183L11.2037 10.0809L8.4547 7.33183Z" fill="white"/>
</svg>