<svg width="359" height="249" viewBox="0 0 359 249" fill="none" xmlns="http://www.w3.org/2000/svg">
<rect x="2" y="2" width="332.759" height="221.679" rx="3" stroke="white" stroke-width="4"/>
<rect opacity="0.5" x="76" y="69" width="14" height="14" rx="1" fill="white"/>
<rect opacity="0.5" x="76" y="63" width="184" height="1" rx="0.5" fill="white"/>
<rect opacity="0.5" x="76" y="41" width="33" height="4" rx="1" fill="white"/>
<rect opacity="0.5" x="76" y="49" width="1" height="11" rx="0.5" fill="white"/>
<rect x="76" y="88" width="14" height="14" rx="1" fill="white"/>
<rect opacity="0.5" x="76" y="107" width="14" height="14" rx="1" fill="white"/>
<rect opacity="0.5" x="76" y="126" width="14" height="14" rx="1" fill="white"/>
<rect opacity="0.5" x="94.6406" y="69" width="14" height="14" rx="1" fill="white"/>
<rect opacity="0.5" x="94.6406" y="88" width="14" height="14" rx="1" fill="white"/>
<rect opacity="0.5" x="94.6406" y="107" width="14" height="14" rx="1" fill="white"/>
<rect opacity="0.5" x="94.6406" y="126" width="14" height="14" rx="1" fill="white"/>
<rect opacity="0.5" x="113.641" y="69" width="14" height="14" rx="1" fill="white"/>
<rect opacity="0.5" x="113.641" y="88" width="14" height="14" rx="1" fill="white"/>
<rect opacity="0.5" x="113.641" y="107" width="14" height="14" rx="1" fill="white"/>
<rect opacity="0.5" x="113.641" y="126" width="14" height="14" rx="1" fill="white"/>
<rect opacity="0.5" x="132.641" y="69" width="14" height="14" rx="1" fill="white"/>
<rect opacity="0.5" x="132.641" y="88" width="14" height="14" rx="1" fill="white"/>
<rect opacity="0.5" x="132.641" y="107" width="14" height="14" rx="1" fill="white"/>
<rect opacity="0.5" x="132.641" y="126" width="14" height="14" rx="1" fill="white"/>
<rect opacity="0.5" x="113.641" y="145" width="14" height="14" rx="1" fill="white"/>
<rect opacity="0.5" x="132.641" y="145" width="14" height="14" rx="1" fill="white"/>
<rect opacity="0.5" x="151.641" y="69" width="14" height="14" rx="1" fill="white"/>
<rect opacity="0.5" x="151.641" y="88" width="14" height="14" rx="1" fill="white"/>
<rect opacity="0.5" x="151.641" y="107" width="14" height="14" rx="1" fill="white"/>
<rect opacity="0.5" x="151.641" y="126" width="14" height="14" rx="1" fill="white"/>
<rect opacity="0.5" x="170.641" y="69" width="14" height="14" rx="1" fill="white"/>
<rect opacity="0.5" x="170.641" y="88" width="14" height="14" rx="1" fill="white"/>
<rect opacity="0.5" x="170.641" y="107" width="14" height="14" rx="1" fill="white"/>
<rect opacity="0.5" x="170.641" y="126" width="14" height="14" rx="1" fill="white"/>
<rect opacity="0.5" x="189.281" y="69" width="14" height="14" rx="1" fill="white"/>
<rect opacity="0.5" x="189.281" y="88" width="14" height="14" rx="1" fill="white"/>
<rect opacity="0.5" x="189.281" y="107" width="14" height="14" rx="1" fill="white"/>
<rect opacity="0.5" x="189.281" y="126" width="14" height="14" rx="1" fill="white"/>
<rect opacity="0.5" x="208.281" y="69" width="14" height="14" rx="1" fill="white"/>
<rect opacity="0.5" x="208.281" y="88" width="14" height="14" rx="1" fill="white"/>
<rect opacity="0.5" x="208.281" y="107" width="14" height="14" rx="1" fill="white"/>
<rect opacity="0.5" x="208.281" y="126" width="14" height="14" rx="1" fill="white"/>
<rect opacity="0.5" x="227.281" y="69" width="14" height="14" rx="1" fill="white"/>
<rect opacity="0.5" x="227.281" y="88" width="14" height="14" rx="1" fill="white"/>
<rect opacity="0.5" x="227.281" y="107" width="14" height="14" rx="1" fill="white"/>
<rect opacity="0.5" x="227.281" y="126" width="14" height="14" rx="1" fill="white"/>
<rect opacity="0.5" x="246.281" y="69" width="14" height="14" rx="1" fill="white"/>
<rect opacity="0.5" x="246.281" y="88" width="14" height="14" rx="1" fill="white"/>
<rect opacity="0.5" x="246.281" y="107" width="14" height="14" rx="1" fill="white"/>
<rect opacity="0.5" x="246.281" y="126" width="14" height="14" rx="1" fill="white"/>
<rect opacity="0.5" x="227" y="145" width="33" height="14" rx="1" fill="white"/>
<rect opacity="0.5" x="189" y="145" width="33" height="14" rx="1" fill="white"/>
<rect opacity="0.5" x="152" y="145" width="33" height="14" rx="1" fill="white"/>
<rect opacity="0.5" x="76" y="145" width="33" height="14" rx="1" fill="white"/>
<rect opacity="0.25" x="76" y="164" width="90" height="14" rx="1" fill="white"/>
<rect opacity="0.25" x="171" y="164" width="90" height="14" rx="1" fill="white"/>
<rect x="45.4023" y="242.955" width="245.953" height="4.44985" rx="2.22492" fill="white"/>
<rect x="313.143" y="107.684" width="43.4153" height="139.058" rx="3" fill="white" stroke="white" stroke-width="3"/>
<path d="M345.788 153.296C345.788 160.078 340.721 165.258 334.85 165.258C328.979 165.258 323.912 160.078 323.912 153.296C323.912 146.513 328.979 141.334 334.85 141.334C340.721 141.334 345.788 146.513 345.788 153.296Z" fill="white" stroke="#004159" stroke-width="5"/>
<ellipse cx="334.85" cy="128.821" rx="4.13479" ry="4.44985" fill="#004159"/>
<ellipse cx="334.85" cy="177.769" rx="4.13479" ry="4.44985" fill="#004159"/>
<ellipse cx="321.412" cy="177.769" rx="4.13479" ry="4.44985" fill="#004159"/>
<ellipse cx="348.289" cy="177.769" rx="4.13479" ry="4.44985" fill="#004159"/>
<ellipse cx="334.85" cy="192.232" rx="4.13479" ry="4.44985" fill="#004159"/>
<ellipse cx="321.412" cy="192.232" rx="4.13479" ry="4.44985" fill="#004159"/>
<ellipse cx="348.289" cy="192.232" rx="4.13479" ry="4.44985" fill="#004159"/>
<ellipse cx="321.412" cy="206.693" rx="4.13479" ry="4.44985" fill="#004159"/>
<ellipse cx="348.289" cy="206.693" rx="4.13479" ry="4.44985" fill="#004159"/>
<ellipse cx="319.862" cy="116.028" rx="2.58424" ry="2.78115" fill="#004159"/>
<rect width="2.0674" height="5.56231" rx="1.0337" transform="matrix(-1 0 0 1 335.885 113.247)" fill="#004159"/>
<rect width="8.26958" height="23.3617" rx="4.13479" transform="matrix(-1 0 0 1 338.984 202.244)" fill="#004159"/>
<rect width="16.5392" height="4.44985" rx="2.22492" transform="matrix(-1 0 0 1 333.816 231.168)" fill="#004159"/>
<rect width="16.5392" height="4.44985" rx="2.22492" transform="matrix(-1 0 0 1 352.424 231.168)" fill="#004159"/>
<rect width="16.5392" height="4.44985" rx="2.22492" transform="matrix(-1 0 0 1 333.816 238.955)" fill="#004159"/>
<rect width="16.5392" height="4.44985" rx="2.22492" transform="matrix(-1 0 0 1 352.424 238.955)" fill="#004159"/>
</svg>
