<svg xmlns="http://www.w3.org/2000/svg" viewBox="0 0 32 28" class="warning-icon">
    <path
            d="M16.0744 20.6363C15.1459 20.6363 14.7705 21.071 14.7705 21.8612V22.0193C14.7705 22.77 15.1459 23.2441 16.0744 23.2441C16.9832 23.2441 17.3586 22.77 17.3586 22.0193V21.8612C17.3586 21.071 16.9832 20.6363 16.0744 20.6363ZM14.9483 9.43457L15.2051 18.6607C15.2249 19.0361 15.3829 19.1941 16.0744 19.1941C16.7659 19.1941 16.9239 19.0361 16.9437 18.641L17.2005 9.43457H14.9483Z"
    />
    <path
            d="M15.4239 1.57812C15.6805 1.13368 16.322 1.13368 16.5786 1.57813L30.4351 25.5781C30.6917 26.0226 30.3709 26.5781 29.8577 26.5781H2.14489C1.63169 26.5781 1.31094 26.0226 1.56754 25.5781L15.4239 1.57812Z"
            stroke-width="1.33333"
    />
</svg>